<?xml version="1.0" standalone="no"?>
<!DOCTYPE svg PUBLIC "-//W3C//DTD SVG 20010904//EN"
 "http://www.w3.org/TR/2001/REC-SVG-20010904/DTD/svg10.dtd">
<svg version="1.0" xmlns="http://www.w3.org/2000/svg"
 width="186.000000pt" height="200.000000pt" viewBox="0 0 186.000000 200.000000"
 preserveAspectRatio="xMidYMid meet">

<g transform="translate(0.000000,200.000000) scale(0.100000,-0.100000)"
fill="#000000" stroke="none">
<path d="M102 1958 c-20 -20 -13 -38 21 -53 36 -15 69 -74 87 -155 5 -25 10
-187 10 -361 0 -342 -2 -329 52 -329 20 0 20 5 16 343 -4 315 -6 347 -25 405
-27 81 -67 138 -105 151 -39 14 -41 14 -56 -1z"/>
<path d="M650 1944 c-39 -33 -66 -86 -85 -166 -11 -49 -15 -136 -15 -388 l0
-326 29 -2 30 -2 3 342 c4 295 7 351 22 397 17 52 49 93 90 116 14 8 17 17 12
33 -10 30 -47 28 -86 -4z"/>
<path d="M1136 1900 c-69 -21 -84 -69 -36 -115 25 -24 30 -37 30 -75 0 -40 -5
-51 -35 -80 l-35 -34 0 -269 0 -270 35 -38 c48 -53 49 -104 3 -161 -30 -38
-31 -42 -17 -67 28 -49 42 -51 369 -51 327 0 336 1 373 53 l21 27 -32 33 c-40
41 -50 92 -28 135 9 17 25 36 36 42 19 10 20 21 20 285 l0 275 -36 47 c-31 41
-35 53 -31 86 4 25 16 51 36 71 27 28 29 34 18 56 -7 14 -28 33 -47 42 -31 16
-68 18 -325 17 -159 0 -303 -5 -319 -9z m113 -74 c17 -21 10 -97 -11 -109 -26
-17 -48 9 -48 57 0 58 31 86 59 52z m0 -190 c8 -9 11 -84 9 -251 -3 -209 -5
-239 -20 -248 -12 -8 -21 -7 -32 2 -14 12 -16 46 -16 250 0 237 3 261 36 261
6 0 17 -6 23 -14z m473 -80 c4 -6 8 -102 8 -212 0 -223 -1 -228 -62 -222 -29
3 -43 17 -128 129 l-95 126 -3 -115 c-1 -64 -8 -122 -14 -129 -15 -18 -63 -16
-82 3 -13 13 -16 46 -16 205 0 112 4 198 10 210 8 14 21 19 51 19 39 0 40 -1
132 -124 l92 -125 2 97 c4 121 8 141 35 151 25 9 60 3 70 -13z"/>
<path d="M220 914 l0 -87 -62 -61 c-40 -40 -72 -84 -92 -126 -28 -59 -31 -74
-31 -160 1 -89 3 -99 37 -165 43 -83 106 -146 186 -183 50 -24 69 -27 163 -27
100 0 108 2 172 34 130 66 198 173 205 323 4 73 1 98 -19 155 -20 57 -36 80
-96 141 l-73 73 0 84 0 85 -30 0 c-30 0 -30 0 -30 -57 0 -32 -4 -63 -8 -68 -4
-6 -56 -10 -127 -10 l-120 0 -3 68 -3 67 -34 0 -35 0 0 -86z m343 -181 c45
-27 55 -48 37 -80 -26 -45 -42 -49 -99 -24 -43 18 -57 20 -89 11 -56 -15 -102
-71 -102 -125 0 -65 68 -135 130 -135 58 0 70 8 70 46 0 31 -2 34 -31 34 -45
0 -69 16 -69 48 0 16 5 33 12 40 16 16 180 16 196 0 16 -16 16 -185 -1 -217
-31 -62 -180 -91 -267 -53 -192 84 -209 352 -30 452 76 41 175 43 243 3z
m-401 -275 c17 -121 123 -228 226 -228 41 0 66 -21 58 -48 -9 -26 -37 -28
-111 -8 -122 32 -218 138 -232 256 -7 62 0 82 29 78 19 -2 24 -11 30 -50z"/>
<path d="M1190 645 c0 -33 2 -35 35 -35 33 0 35 2 35 35 0 33 -2 35 -35 35
-33 0 -35 -2 -35 -35z"/>
<path d="M1650 645 c0 -32 2 -35 30 -35 28 0 30 3 30 35 0 32 -2 35 -30 35
-28 0 -30 -3 -30 -35z"/>
<path d="M1190 307 c0 -196 3 -247 14 -263 12 -15 18 -17 33 -8 16 10 18 32
21 263 l2 251 -35 0 -35 0 0 -243z"/>
<path d="M1650 296 c0 -216 2 -255 15 -260 8 -3 22 -3 30 0 13 5 15 44 15 260
l0 254 -30 0 -30 0 0 -254z"/>
</g>
</svg>
